<svg xmlns="http://www.w3.org/2000/svg" width="72" height="72" viewBox="0 0 72 72">
  <defs>
    <linearGradient id="bg" x1="0" y1="0" x2="1" y2="1">
      <stop offset="0" stop-color="#FFD447" stop-opacity="0.28"/>
      <stop offset="1" stop-color="#FF8F4A" stop-opacity="0.10"/>
    </linearGradient>
    <linearGradient id="st" x1="0" y1="0" x2="1" y2="1">
      <stop offset="0" stop-color="#FFD447"/><stop offset="1" stop-color="#FF8F4A"/>
    </linearGradient>
  </defs>
  <rect x="1" y="1" width="70" height="70" rx="20" fill="#0B0F1E"/>
  <rect x="1" y="1" width="70" height="70" rx="20" fill="url(#bg)" stroke="#FFD447" stroke-opacity="0.45" stroke-width="1.5"/>
  <g transform="translate(18 18) scale(1.5)" fill="none" stroke="url(#st)" stroke-width="1.9"
     stroke-linecap="round" stroke-linejoin="round"><circle cx="13.5" cy="6.5" r="1.5"/><circle cx="17.5" cy="10.5" r="1.5"/><circle cx="8.5" cy="7.5" r="1.5"/><circle cx="6.5" cy="12.5" r="1.5"/><path d="M12 2a10 10 0 0 0 0 20c1.1 0 2-.9 2-2 0-.5-.2-1-.5-1.3-.3-.4-.5-.8-.5-1.3 0-1.1.9-2 2-2h2.4A5.6 5.6 0 0 0 22 10c0-4.4-4.5-8-10-8z"/></g>
</svg>
